HIERARCHY
ROOT Hips
{
	OFFSET 0.000000 0.000000 0.000000
	CHANNELS 6 Xposition Yposition Zposition Zrotation Yrotation Xrotation 
	JOINT LHipJoint
	{
		OFFSET 0.000000 0.000000 0.000000
		CHANNELS 3 Zrotation Yrotation Xrotation
		JOINT LeftUpLeg
		{
			OFFSET 1.363060 -1.794630 0.839290
			CHANNELS 3 Zrotation Yrotation Xrotation
			JOINT LeftLeg
			{
				OFFSET 2.448110 -6.726130 0.000000
				CHANNELS 3 Zrotation Yrotation Xrotation
				JOINT LeftFoot
				{
					OFFSET 2.562200 -7.039590 0.000000
					CHANNELS 3 Zrotation Yrotation Xrotation
					JOINT LeftToeBase
					{
						OFFSET 0.157640 -0.433110 2.322550
						CHANNELS 3 Zrotation Yrotation Xrotation
						End Site
						{
							OFFSET 0.000000 0.000000 0.000000
						}
					}
				}
			}
		}
	}
	JOINT RHipJoint
	{
		OFFSET 0.000000 0.000000 0.000000
		CHANNELS 3 Zrotation Yrotation Xrotation
		JOINT RightUpLeg
		{
			OFFSET -1.305520 -1.794630 0.839290
			CHANNELS 3 Zrotation Yrotation Xrotation
			JOINT RightLeg
			{
				OFFSET -2.542530 -6.985550 0.000000
				CHANNELS 3 Zrotation Yrotation Xrotation
				JOINT RightFoot
				{
					OFFSET -2.568260 -7.056230 0.000000
					CHANNELS 3 Zrotation Yrotation Xrotation
					JOINT RightToeBase
					{
						OFFSET -0.164730 -0.452590 2.363150
						CHANNELS 3 Zrotation Yrotation Xrotation
						End Site
						{
							OFFSET 0.000000 0.000000 0.000000
						}
					}
				}
			}
		}
	}
	JOINT LowerBack
	{
		OFFSET 0.000000 0.000000 0.000000
		CHANNELS 3 Zrotation Yrotation Xrotation
		JOINT Spine
		{
			OFFSET 0.028270 2.035590 -0.193380
			CHANNELS 3 Zrotation Yrotation Xrotation
			JOINT Spine1
			{
				OFFSET 0.056720 2.048850 -0.042750
				CHANNELS 3 Zrotation Yrotation Xrotation
				JOINT Neck
				{
					OFFSET 0.000000 0.000000 0.000000
					CHANNELS 3 Zrotation Yrotation Xrotation
					JOINT Neck1
					{
						OFFSET -0.054170 1.746240 0.172020
						CHANNELS 3 Zrotation Yrotation Xrotation
						JOINT Head
						{
							OFFSET 0.104070 1.761360 -0.123970
							CHANNELS 3 Zrotation Yrotation Xrotation
							End Site
							{
								OFFSET 0.000000 0.000000 0.000000
							}
						}
					}
				}
				JOINT LeftShoulder
				{
					OFFSET 0.000000 0.000000 0.000000
					CHANNELS 3 Zrotation Yrotation Xrotation
					JOINT LeftArm
					{
						OFFSET 3.362410 1.200890 -0.311210
						CHANNELS 3 Zrotation Yrotation Xrotation
						JOINT LeftForeArm
						{
							OFFSET 4.983000 -0.000000 -0.000000
							CHANNELS 3 Zrotation Yrotation Xrotation
							JOINT LeftHand
							{
								OFFSET 3.483560 -0.000000 -0.000000
								CHANNELS 3 Zrotation Yrotation Xrotation
								JOINT LeftFingerBase
								{
									OFFSET 0.000000 0.000000 0.000000
									CHANNELS 3 Zrotation Yrotation Xrotation
									JOINT LeftHandIndex1
									{
										OFFSET 0.715260 -0.000000 -0.000000
										CHANNELS 3 Zrotation Yrotation Xrotation
										End Site
										{
											OFFSET 0.000000 0.000000 0.000000
										}
									}
								}
								JOINT LThumb
								{
									OFFSET 0.000000 0.000000 0.000000
									CHANNELS 3 Zrotation Yrotation Xrotation
									End Site
									{
										OFFSET 0.000000 0.000000 0.000000
									}
								}
							}
						}
					}
				}
				JOINT RightShoulder
				{
					OFFSET 0.000000 0.000000 0.000000
					CHANNELS 3 Zrotation Yrotation Xrotation
					JOINT RightArm
					{
						OFFSET -3.136600 1.374050 -0.404650
						CHANNELS 3 Zrotation Yrotation Xrotation
						JOINT RightForeArm
						{
							OFFSET -5.241900 -0.000000 -0.000000
							CHANNELS 3 Zrotation Yrotation Xrotation
							JOINT RightHand
							{
								OFFSET -3.444170 -0.000000 -0.000000
								CHANNELS 3 Zrotation Yrotation Xrotation
								JOINT RightFingerBase
								{
									OFFSET 0.000000 0.000000 0.000000
									CHANNELS 3 Zrotation Yrotation Xrotation
									JOINT RightHandIndex1
									{
										OFFSET -0.622530 -0.000000 -0.000000
										CHANNELS 3 Zrotation Yrotation Xrotation
										End Site
										{
											OFFSET 0.000000 0.000000 0.000000
										}
									}
								}
								JOINT RThumb
								{
									OFFSET 0.000000 0.000000 0.000000
									CHANNELS 3 Zrotation Yrotation Xrotation
									End Site
									{
										OFFSET 0.000000 0.000000 0.000000
									}
								}
							}
						}
					}
				}
			}
		}
	}
}
MOTION
Frames: 7
Frame Time: 0.033333
0.432987 15.904122 -21.518761 -4.518339 3.887359 36.646546 -7.783771 -1.123778 -2.946044 -12.798239 -2.354860 -66.891378 -8.006359 -4.079064 29.102292 1.468837 3.566098 -7.106149 -0.564751 0.128295 -26.017650 10.092156 -0.723982 -1.022458 10.128167 5.405975 -55.137227 -1.090802 -3.636986 63.673709 -0.556774 6.876667 -15.789644 1.131615 -0.015180 -62.453411 -1.376545 -15.647237 2.298841 -3.466387 1.542305 -1.315957 -4.904815 3.899103 0.937148 6.304516 -5.545336 -8.244096 -2.585246 -0.250079 -0.087984 -0.125454 0.077562 0.104971 4.159346 6.331364 6.801727 -59.856147 -25.624905 0.192623 -8.028550 -58.380127 4.761764 -0.752486 0.994256 -0.028349 -0.252233 0.316187 -0.156921 -0.003910 -0.045848 0.090266 -0.091106 0.053992 0.056358 11.231089 -3.683128 -9.450545 69.969954 8.117019 33.476617 -2.933135 68.805851 -2.175383 -1.141333 6.555696 -0.046030 0.038596 -0.281023 0.024254 0.102208 -0.045149 -0.074938 0.052479 -0.012269 -0.025058 
0.526590 16.029191 -20.947147 -5.035684 5.171667 36.040153 -7.323140 -2.739986 -5.836359 -12.099965 -1.491816 -65.241575 -5.569350 -1.702495 36.974633 1.960689 2.382021 -9.999693 -0.662444 0.163116 -25.951389 11.299385 0.402498 -1.857924 8.854822 6.329229 -55.668567 -2.949179 -4.701707 68.881411 -1.054525 0.006655 -1.253295 1.572278 -0.032977 -61.349188 0.048719 -12.228090 -1.284801 -3.329495 1.572065 -0.634175 -4.648795 3.144287 1.353907 6.395036 -5.594135 -6.993836 -2.393475 -0.255773 0.150048 -0.130415 0.083325 0.109658 3.005532 6.671307 5.734954 -61.207875 -23.722499 3.253431 -10.239911 -61.556004 5.937568 -0.336008 0.522349 0.003001 -0.234683 0.316319 -0.156292 -0.005334 -0.043974 0.089666 -0.085199 0.040938 0.045513 10.608228 -6.449255 -9.295804 71.323480 8.487163 31.586403 -3.052358 70.034085 -1.984730 -1.101740 6.859371 -0.044810 0.095580 -0.279563 0.022895 0.102627 -0.043888 -0.068411 0.046185 -0.014513 -0.014030 
0.628488 16.142665 -20.434872 -5.600854 4.874934 34.876730 -7.128398 -4.098846 -6.484469 -11.032487 -0.905814 -64.148945 -2.825578 0.013536 42.205753 1.755840 2.833008 -11.472510 -0.870111 0.204420 -26.675754 11.058787 0.449326 -1.882364 10.416090 5.976310 -57.029205 -3.509565 -4.441543 71.909791 -0.953828 -5.109467 9.671835 1.600334 -0.051628 -60.388925 -0.062054 -8.278606 -0.468895 -3.047676 1.961435 -1.605255 -5.235619 3.130645 1.390171 6.700523 -5.749855 -5.661942 -2.332708 -0.235043 0.149405 -0.131082 0.092642 0.117312 2.569134 4.762167 5.395981 -62.083104 -22.535662 6.116504 -7.735575 -65.721068 4.042819 1.290802 -0.003846 0.002568 -0.147528 0.342255 -0.148337 -0.008831 -0.056893 0.075554 -0.072690 0.031961 0.036239 12.880245 -8.649715 -7.758991 71.454891 8.554264 28.957142 -3.226185 71.929646 -2.467984 -1.777660 7.173425 -0.119034 0.088716 -0.354904 0.018088 0.110149 -0.035555 -0.060962 0.045257 -0.012565 -0.015997 
0.736216 16.244256 -19.967505 -5.787048 3.796702 32.243941 -8.551515 -3.688129 -5.653518 -9.218404 -1.314129 -61.379051 -0.449239 1.691751 44.344497 1.668833 2.813112 -12.567922 -0.937998 0.195678 -28.189457 10.211939 0.642636 -1.284428 10.200246 5.200116 -57.560891 -2.126189 -5.102381 71.632111 -0.308096 -7.648231 13.747164 1.063402 -0.038234 -60.033744 -0.932605 -5.874171 3.813759 -3.328423 2.715840 -1.680062 -5.308479 1.840784 1.169619 7.033873 -5.544246 -4.590708 -2.345690 -0.234354 0.250332 -0.118845 0.097904 0.119000 2.049911 5.074243 4.311192 -62.118911 -22.764614 9.496588 -4.922244 -66.054705 2.519457 1.359877 -0.026988 0.005266 -0.109762 0.330262 -0.134529 -0.013409 -0.057747 0.060946 -0.067485 0.031639 0.030951 13.194096 -5.344011 -5.516572 71.444947 7.744046 26.391753 -2.752649 71.024954 -2.343421 -1.924523 6.799626 -0.131557 0.075681 -0.405946 0.008159 0.126285 -0.035812 -0.067061 0.048783 -0.006641 -0.022350 
0.857304 16.337617 -19.524054 -4.774273 2.000199 31.600269 -9.581997 -2.958829 -4.163468 -10.267252 -1.259901 -59.733941 -0.425487 1.073534 43.226125 2.067981 3.292753 -14.380787 -0.842881 0.135929 -29.778246 10.190079 1.146244 -0.570710 8.652431 4.232422 -59.977337 -1.732517 -5.656921 66.938773 -0.599464 -7.187368 6.613716 0.582677 -0.022924 -59.115023 -2.946938 -1.767548 6.558034 -2.371934 0.894437 -0.986755 -4.368816 2.259530 0.131909 6.599386 -5.423545 -3.943216 -2.305817 -0.237742 0.488124 -0.106795 0.087046 0.115876 2.008408 3.467094 3.480215 -61.652791 -22.711851 11.189076 -4.451257 -69.100176 2.440950 1.091122 0.344991 -0.006437 -0.081725 0.319112 -0.123748 -0.022728 -0.056058 0.060203 -0.064355 0.029178 0.030132 9.911198 -4.240303 -5.598845 71.759210 6.956607 23.453082 -1.913478 69.425566 -1.825945 -1.820726 6.034144 -0.135574 0.052906 -0.446657 0.008182 0.137706 -0.034218 -0.077769 0.055110 -0.003892 -0.032355 
0.985838 16.415520 -19.091787 -2.990978 1.161165 30.652169 -11.017565 -3.019734 -2.487773 -10.758873 0.387773 -58.647075 -2.833733 1.709061 42.643512 2.239532 2.596602 -15.282743 -0.850906 0.063935 -31.582837 10.142683 1.534954 -0.018938 7.186681 2.767074 -62.088345 0.404183 -4.730118 60.955697 -1.383854 -4.814669 -1.597956 0.228222 0.026244 -58.286207 -3.698430 1.212460 7.345890 -2.129249 0.159707 -0.319824 -4.436387 1.456616 -0.656759 6.979546 -5.186790 -4.278179 -2.588489 -0.254086 0.518735 -0.096814 0.081135 0.110702 2.957690 1.794259 2.504846 -60.093559 -22.074234 12.118288 -7.958054 -71.938067 5.800185 0.773013 0.712559 0.001972 -0.023699 0.324922 -0.116551 -0.029238 -0.060721 0.060241 -0.071550 0.021114 0.026219 8.763174 -3.869291 -6.183452 72.838623 5.487594 21.230215 0.096201 67.563525 0.146422 -1.786640 5.343654 -0.123699 0.056991 -0.403055 0.001764 0.145737 -0.041837 -0.088564 0.053124 -0.003563 -0.043214 
1.108451 16.467057 -18.664450 -2.325612 0.049910 30.924522 -11.756887 -2.179633 -2.571609 -11.522288 1.286630 -57.346277 -3.634799 2.343087 42.281012 2.286009 1.277092 -16.071051 -0.814591 0.004840 -31.985965 9.405566 1.886526 0.114396 6.583829 3.908218 -64.637322 2.482512 -5.348042 55.199263 -1.528152 -2.773565 -4.372550 0.235061 0.039977 -57.124001 -3.918373 5.154507 6.775817 -1.785028 -0.505316 0.510764 -4.559782 -1.164998 -0.449178 7.127990 -5.798157 -4.458219 -2.482339 -0.260349 0.411842 -0.092263 0.068185 0.098775 3.903520 1.100846 1.763190 -58.637983 -20.064382 11.402657 -9.762881 -78.354197 7.445171 1.008210 1.005295 -0.009121 -0.073921 0.320590 -0.111475 -0.034231 -0.071398 0.072792 -0.066442 0.024931 0.030782 7.284388 -2.280803 -8.808806 74.072511 3.046904 18.405403 2.559052 66.704185 2.026318 -2.078477 4.891795 -0.145118 0.076484 -0.375814 0.017793 0.144711 -0.051777 -0.096749 0.056105 -0.019657 -0.040571 
